<?xml version="1.0" encoding="UTF-8"?>
<svg id="Layer_1" data-name="Layer 1" xmlns="http://www.w3.org/2000/svg" viewBox="0 0 452.98 475.91">
  <defs>
    <style>
      .cls-1 {
        fill: #3d7bbf;
      }
    </style>
  </defs>
  <path class="cls-1" d="M216.98,1.37c12.11,2.59,23.36,11.51,29.18,24.18,2.1,4.56,4.22,14.53,6.76,18.41,2.94,4.5,9.3,2.24,12.23,9.93,3.87,10.16-2.46,24.74-6.38,33.99-1.99,4.69-1.44,9.68-7.78,11.68-4.81,1.52-12.3-7.07-15.54-10.84-2.31-2.69-5.4-7.97-7.44-10.79-4.12-5.73-6.48-8.43-6.08-16.98s5.2-10.75,11.1-13.9c2.36-4.94-3.46-15.03-6.56-18.46-11.81-13.04-39.05-16.51-53.07-8.03-20.89,12.64-26.21,44.19-10.87,64.66,28.27,37.73,96.98,31.61,136.45,49.39,6.82,3.07,18.53,10.94,23.65,16.84,4.82,5.55,12.77,21.18,13.33,28.54,3.9,50.75-34.07,87.47-73.96,99.79-2.37.73-14.13,3.94-15.58,3.86-5.87-.34-3.19-17.91-4.01-22.58,1.25-2.76,8.26-3.23,11.12-4.49,25.74-11.34,46.08-37.46,43.33-70.79-.96-11.56-4.63-16.6-13.14-22.52-45.25-31.5-156.28-19.19-153.79-110.31.42-15.27,8.53-28.62,19.3-37.1,8.67-6.82,18.31-12.72,28.75-14.46,9.62-1.6,29.47-2.04,39,0Z"/>
  <path class="cls-1" d="M452.98,168.06v5.67c-3.19-.1-5.15,2.71-8.02,3.95-11.91,5.15-24.88,4.84-37.21,7.7-23.48,5.46-44.99,19.78-63.52,36-2.19,1.92-6.62,5.11-9.26,6.21,6.35-19.25,10.73-39.49,4.01-59.52h113.99Z"/>
  <path class="cls-1" d="M236.98,333.62c-3.14,2.96-18.72,3.13-19.87-.71l-1.07-74.76-37.29-5.34c-52.86-8.8-84.34-55.46-136.74-66.07-15.35-3.11-30.79-1.21-42.02-15.83l3.43-1.76c82.67.15,165.48.51,248.01-1.13,6.37-.13,26.14-1.26,30.83.28,6.11,2.01,7.92,19.27,7.75,25.33-.67,24.03-19.82,49.28-39.05,57.78-4.02,1.78-14,1.87-14,7.94v74.27Z"/>
  <path class="cls-1" d="M191.35,325.29c1.66,3.5,8.98,9.38,12.77,11.01,14.09,6.05,52.28,6.81,62.52-7.61,4.59-6.46,2.02-16.73-5.36-18.64-5.05-1.31-14.49,2.23-17.3.33-2.73-1.84-3.05-11.01.07-13.55,8.14-6.59,32.39-6.98,42.19-4.88,16.17,3.46,26.01,13.82,19.96,33.45-.4,1.28-5.79,9.46-6.7,10.49-28.03,31.76-97.97,34.74-127.98,4.5-29.94-30.16-.78-75.75,31.99-78.19,10.49-.78,6.37,1.54,6.39,8.49,0,3.22,1.48,12.25.97,14.5-.69,3.11-9.11,5.31-11.79,7.14-10.48,7.12-13.47,20.84-7.72,32.96Z"/>
  <path class="cls-1" d="M237.98,420.93v19.84c0,7.63,21.46,11.96,26.62,12.91,4.89.9,11.97.29,16.68,1.49,5.4,1.38,11.99,5.86,19.49,7.38,12.68,2.57,28.32,1.32,39.92,8.02,1.41.82,2.64,1.54,2.28,3.64l-229,1.7c.2-2.6,3.26-3.69,5.02-4.51,15.79-7.36,27.17-4.41,42.26-7.64,4.71-1.01,11.3-6.32,16.05-7.88,8.07-2.64,34.39-2.98,37.23-13.35,1.12-4.08.79-23.25,2.38-24.51l21.07,2.91Z"/>
  <path class="cls-1" d="M177.67,354.13l20.32,10.65c1.96,2.51.42,7.23,1.43,10.85.88,3.18,8.11,14,10.68,16.24,15.42,13.53,45.01,9.47,64.09,16.91,3.5,1.37,18.95,8.54,16.36,14.39-4.32,5.86-7.63-.79-11.55-2.84-12.06-6.32-28.55-3.92-41.51-5.09-25.24-2.29-67.86-11.21-64.5-49.3.27-3.09,1.7-10.97,4.68-11.81Z"/>
  <path class="cls-1" d="M236.99,366.49c-.7,9.93,2.74,20.91-.98,30.15l-20.11-6.81c-2.04-2.74.01-23.17,1.01-23.98l20.07.64Z"/>
  <path class="cls-1" d="M199.27,328.73c-.34-.33-4.17-4.69-4.34-4.98-3.87-6.81,12.31-16.89,15.12-14.6.99.81.85,2.23.98,3.43,1.13,10.74-.08,12.21-7.76,17.46-1.37.4-2.95-.32-4-1.32Z"/>
</svg>