<?xml version="1.0" encoding="UTF-8"?>
<svg id="Layer_1" data-name="Layer 1" xmlns="http://www.w3.org/2000/svg" viewBox="0 0 517.38 516.92">
  <defs>
    <style>
      .cls-1, .cls-2 {
        stroke: #000;
        stroke-miterlimit: 10;
        stroke-width: 13px;
      }

      .cls-2 {
        fill: #fff;
      }
    </style>
  </defs>
  <path class="cls-2" d="M180.12,508.64c-1.1,1.99-16.42,1.25-18.44,1.37-45.27-.33-153.83-.19-153.83-.19,0,0,.08-358.86-1.35-468.82,0-14.31,0-29.97,0-29.97v-4.52s502.99,0,502.99,0c0,0,2.4,120.59.9,151.05-2.38,6.14-11.86-6.63-17.19-7.33-86.65-20.74-177.98-26.77-265.39-6.98-15.84,2.67-30.72,5.64-46.77,8.28-8.75,1.85-20.25,2.06-25.58,10.13-2.2,4.33-1.73,9.84-1.79,14.76.78,18.76-1.45,44.7,1.11,63.15,5.82,12.39,26.76,6.48,38.47,7.23,20.19-1.98,42.51,6.24,40.24-22.87.95-10.06-2.86-25.2,4.63-31.9,3.1-1.92,11.45-1.69,16.48-1.77,20.98-.17,42.42-.45,63.28,2.49,46.84,5.24,92.16,19.83,131.5,46.03,9.55,7.77,25.22,13.44,25.87,27.3.36,25.81-.06,76.14.07,106.19-.28,3.68.54,5.53-2.05,6.53-15.87.6-75.79-.05-135.83.18-35.93-.03-62.2.02-91.54,0-10.05-.47-19.23.11-28.4,4.03-22.57,5.83-41.08,24.02-47.36,46.46-2.89,9.79-1.59,23.86-1.88,35.32-.64,13.2,1.73,32.69-.45,44.28l12.29-.43ZM212.35,348.06c9.2-8.71,10.65-22.18,3.74-32.83-2.93-4.42-6.16-8.54-9.52-12.65-11.18-15.02-17.96-10.98-28.23,2.09-6.34,7.86-13.18,17.29-11.9,27.96,2.95,22.13,29.94,30.59,45.81,15.51l.1-.1Z"/>
  <path class="cls-1" d="M168.34,507.89c-1.21-16.2-.2-40.87-.51-57.43.07-7.47.07-14.41,2.05-21.25,7.53-27.21,30.73-43.18,57.09-49.3,28.55-2.35,106.15-.29,175.13-.95,25.62-.01,50.25.11,70.29-.09,5.8.61,2.35-16.8,3.26-24.18,0-24.76,0-64.68,0-83.47.1-6.67-.84-12.74-5.1-16.6-18.47-16.42-40.52-28.14-62.86-38.53-48.39-21.51-102.5-27.18-155.01-25.81-5.85.47-12.8-.83-16.63,4.07-4.79,9.79-1.97,23.45-3.05,34.15.06,15.02-8.41,17.35-21.72,17.78-14.25.13-28.95,1.5-42.76.75-13.43-.43-15.92-8.7-15.25-20.76-.03-13.21-.03-34.54-.07-47.89-.85-14.9,1.91-22.12,17.7-25.04,48.98-8.45,97.29-19.58,147.08-22.13,52.23-1.78,104.55,3.99,155.63,14.6,8.78,1.81,17.3,3.92,25.88,5.59,5.1,1.41,10.52.77,10.92,6.15.01,47.22.01,114.71.01,169.95,0,60.15,0,119.51,0,178.59.83,5.65-3.89,3.5-7.84,3.92-25.88-.03-50.51.02-77.38,0-60.23.04-132.17-.03-190.71,0-29.15-1.28-63.25,2.84-66.11-2.06v-.05Z"/>
  <path class="cls-1" d="M212.33,349.34c-15.97,15.5-43.34,6.75-45.9-16.41-1.04-9.98,4.38-19,9.99-26.68,5.07-6.81,10.57-15.99,16.93-16.14,3.17-.08,6.56,3.97,10.21,7.93,5.06,5.73,9.83,11.99,13.56,18.75,5.62,10.44,3.99,24.22-4.69,32.43l-.11.11Z"/>
</svg>